<?xml version="1.0" encoding="UTF-8"?>
<svg width="128px" height="128px" version="1.1" viewBox="0 0 128 128" xmlns="http://www.w3.org/2000/svg" xmlns:xlink="http://www.w3.org/1999/xlink">
   <defs>
      <linearGradient id="g" x1="22.502" x2="23.654" y1="251.09" y2="233.48" gradientTransform="translate(10.998 -168)" gradientUnits="userSpaceOnUse">
         <stop stop-color="#005f76" offset="0"/>
         <stop stop-color="#0cc" offset="1"/>
      </linearGradient>
      <linearGradient id="i" x1="19.932" x2="19.932" y1="248" y2="229.1" gradientTransform="translate(.000438 -169)" gradientUnits="userSpaceOnUse">
         <stop stop-color="#005f76" offset="0"/>
         <stop stop-color="#0cc" offset="1"/>
      </linearGradient>
      <linearGradient id="f" x1="37.131" x2="42.115" y1="254.38" y2="244" gradientTransform="translate(10.999 -166)" gradientUnits="userSpaceOnUse">
         <stop stop-color="#005f76" offset="0"/>
         <stop stop-color="#0cc" offset="1"/>
      </linearGradient>
   </defs>
   <linearGradient id="a" x1="22.004" x2="51.079" y1="99.91" y2="93.36" gradientUnits="userSpaceOnUse">
      <stop stop-color="#d1d1d1" offset="0"/>
      <stop stop-color="#f8f8f8" offset=".10047"/>
      <stop stop-color="#eee" offset=".17793"/>
      <stop stop-color="#77767b" offset=".54303"/>
   </linearGradient>
   <linearGradient id="b" x1="32.671" x2="27.958" y1="92.68" y2="112.54" gradientUnits="userSpaceOnUse">
      <stop stop-opacity=".40132" offset="0"/>
      <stop stop-opacity="0" offset="1"/>
   </linearGradient>
   <linearGradient id="c" x1="29.218" x2="51.079" y1="101.77" y2="95.92" gradientUnits="userSpaceOnUse">
      <stop stop-color="#d1d1d1" offset="0"/>
      <stop stop-color="#f8f8f8" offset=".13612"/>
      <stop stop-color="#eee" offset=".27225"/>
      <stop stop-color="#77767b" offset=".67085"/>
      <stop stop-color="#f5f5f5" offset="1"/>
   </linearGradient>
   <linearGradient id="d" x1="43.006" x2="34.171" y1="97.21" y2="112" gradientUnits="userSpaceOnUse">
      <stop stop-opacity=".4" offset="0"/>
      <stop stop-opacity="0" offset="1"/>
   </linearGradient>
   <linearGradient id="e" x1="35.722" x2="83.388" y1="99.5" y2="83.2" gradientUnits="userSpaceOnUse">
      <stop stop-color="#d1d1d1" offset="0"/>
      <stop stop-color="#f8f8f8" offset=".11111"/>
      <stop stop-color="#eee" offset=".20391"/>
      <stop stop-color="#fff" offset="1"/>
   </linearGradient>
   <linearGradient id="h" x1="31.342" x2="55.144" y1="88.5" y2="78.84" gradientUnits="userSpaceOnUse">
      <stop stop-color="#10919e" offset="0"/>
      <stop stop-color="#1a8799" offset=".18001"/>
      <stop stop-color="#139caa" offset=".64851"/>
      <stop stop-color="#0ab3bb" offset="1"/>
   </linearGradient>
   <linearGradient id="j" x1="18.257" x2="32.106" y1="58.64" y2="54.64" gradientUnits="userSpaceOnUse">
      <stop stop-color="#1a8799" offset="0"/>
      <stop stop-color="#139caa" offset=".60323"/>
      <stop stop-color="#0ab3bb" offset="1"/>
   </linearGradient>
   <linearGradient id="l" x1="13.934" x2="27.75" y1="61.82" y2="58.38" gradientUnits="userSpaceOnUse">
      <stop stop-color="#1a8799" offset="0"/>
      <stop stop-color="#139caa" offset=".37547"/>
      <stop stop-color="#0ab3bb" offset="1"/>
   </linearGradient>
   <linearGradient id="m" x1="97" x2="107" y1="-279" y2="-279" gradientTransform="matrix(1 0 0 -1 0 -169)" gradientUnits="userSpaceOnUse">
      <stop stop-color="#005f76" offset="0"/>
      <stop stop-color="#139caa" offset=".5"/>
      <stop stop-color="#005f76" offset="1"/>
   </linearGradient>
   <path d="m45.984 70.906h-25.047v29.191c-0.015625 8.4492 5.9883 16.945 18.496 16.934l6.5664-0.011719z" fill="url(#a)"/>
   <path d="m25.066 73.578h-4.0625v26.551c0 8.5586 7.4336 16.871 16.004 16.871l0.74219-1.0078c-6.6445 0-11.996-4.5898-12.68-10.492v-0.003906h0.003907c-0.050781-0.42188-0.078125-0.83984-0.078125-1.2578z" fill-opacity=".15"/>
   <path d="m18.191 74.031 2.8086 25.969c0 9.2344 7 17 17.035 17h7.9648v-43z" fill="url(#b)"/>
   <path d="m28.488 87.27v13.07c-0.0625 4.7695 2.3984 9.4492 6.3438 12.137 2.7461 1.875 6.1016 2.6914 9.3984 2.5234l6.8477-0.015625v-27.715z" fill="url(#c)"/>
   <path d="m25.105 85.23 3.3828 15.266c0 8.0156 6.4961 14.512 14.52 14.512v-1.0234c-5.2148 0-9.4727-3.9258-10.008-8.9805v-0.003906c-0.039062-0.35547-0.058594-0.71484-0.058594-1.0742 0-1.3359 0.26953-2.6602 0.78906-3.8984l4.9766-11.848z" fill-opacity=".15"/>
   <path d="m28.5 100.47c-0.070312 5.3984 3.1836 10.645 8.0312 13.004 2.4844 1.293 5.332 1.6406 8.1016 1.5234h3.3672v-28h-20.25z" fill="url(#d)"/>
   <path d="m30.516 18 6.0586 81.5c-0.10156 0.61719-0.15234 1.2383-0.15234 1.8633 0 6.4258 5.2109 11.637 11.641 11.637h48.938c5.5234 0 10-4.4766 10-10v-75c0-5.5234-4.4766-10-10-10z" fill="url(#e)"/>
   <g fill-opacity=".12">
      <path d="m68 47v6h-37v-23h64v17z"/>
      <path d="m84 72v6h-53v-19h64v13z"/>
      <path d="m72 101v-6h23v-11h-60.617v6.3281c0 5.8945 4.7773 10.672 10.672 10.672z"/>
   </g>
   <path d="m35.402 18h-17.641l18.82 81.5c-0.10156 0.61328-0.15234 1.2383-0.15234 1.8594 0 6.4258 5.207 11.633 11.633 11.633l-0.0625-1c-2.8945-0.35547-5.1992-2.5781-5.6133-5.4609-0.14453-0.98047-0.078125-1.8789 0.17578-2.7578 0.68359-2.3516 2.6289-4.1172 5.0664-4.5703l9.0508-1.8633c3.5664-0.66016 6.3281-3.4844 6.7695-7.1172 0.30859-1.8789-0.27734-3.543-1.043-5.1992z" fill-opacity=".1"/>
   <path d="m36.02 104.81c1.4883 5.4219 6.418 9.1797 12.039 9.1836l8.9414 1v-2l-8.9414-1c-4.7305-0.003907-8.8555-3.1484-10.109-7.7148-0.28516-1.0469-0.37891-1.8906-0.37891-2.7773 0.003907-3.8086 2.3008-8.4219 7.3906-10.02h0.003906l3.7812-1.1914c4.1797-1.3086 7.0781-5.0938 7.0781-9.5156 0-1.3828-0.51953-3.3594-1.0273-4.6758l-0.48438-1.2539-2.1484 0.53125 0.99219 2.1758c0.44141 1.0195-0.33203 2.1172-0.33203 3.2227 0 3.5547-2.2852 5.5469-5.6758 6.6094l-3.7852 1.1914c-4.543 1.4297-7.875 3.2695-8.6328 7.9297-0.3125 1.9375 0.85156 6.7148 1.2891 8.3047zm0 0" fill="url(#f)" stop-color="#000000" stroke-linecap="round" stroke-linejoin="round"/>
   <path d="m23.863 11.676c-4.8945 0-8.8633 3.9688-8.8633 8.8633l-0.625 5.625 21.652 78.723v-0.015625c-0.003906-0.019532-0.011719-0.042969-0.015625-0.0625-0.19141-0.71484-0.26562-1.0938-0.33984-1.6445-0.074219-0.55078-0.10938-1.1055-0.11328-1.6641 0-0.66797 0.054687-1.3398 0.16406-2 0.75781-4.668 4.0859-8.5078 8.6328-9.9336l3.7812-1.1914c4.1758-1.3086 7.0078-5.168 7.0078-9.5391 0-0.74219-0.082031-1.4766-0.24609-2.1953-0.15625-0.61328-0.36328-1.2148-0.58594-1.7969l-22.32-57.844c-1.2695-3.2891-4.5977-5.3242-8.1289-5.3242z" fill="url(#h)"/>
   <path d="m22.055 12.129c-5.0938 0.46094-9.7148 5.625-9.7148 10.84l0.66016 0.03125 21.738 77c-0.1875-0.78125-0.28125-1.5703-0.28125-2.3672 0.003907-2.7734 1.1328-5.5781 3.0898-8.043l2.2188-2.5898c3.7969-5.1211 4.6445-11.188 2.3477-16.789l-17.031-54.922c-0.45312-1.4727-1.6719-2.6094-3.0273-3.1602z" fill="#003446" fill-opacity=".28"/>
   <path d="m33.664 65.477c1.5977 5.8359 1.1914 12.039-1.1523 17.617l-4.793 11.406c-0.95312 2.457-0.50391 5.1211-0.12109 7.6562 0.82422 7.7773 7.4062 13.836 15.406 13.836l13.996 1v-3h-13.996c-6.9922 0-12.695-5.2695-13.418-12.043v-0.007813c-0.050782-0.47656-0.078126-0.96094-0.078126-1.4414 0.003907-1.793 0.35938-3.5664 1.0547-5.2266l4.793-11.406c2.5156-5.9922 2.9531-12.652 1.2383-18.918l-12.199-44.605-0.011719-0.003906-2.0273-7.4141c-0.41797-1.5352-1.6016-2.6914-3.0703-3.1289l-2.2461-0.67188-1.2031 2.6719 2.8164 0.9375c0.49219 0.46094 0.86719 1.0625 1.0586 1.7578l4.4102 16.109zm0 0" fill="url(#g)" stop-color="#000000" stroke-linecap="round" stroke-linejoin="round"/>
   <path d="m33.504 83.09c2.3398-5.5781 2.7461-11.777 1.1523-17.613l-14.559-53.223c-0.55859-2.0547-2.4844-3.4336-4.6094-3.3047-0.3125 0.019531-0.62891 0.078125-0.94531 0.17578-2.9531 0.92188-5.9102 5.2539-4.5195 11.734l17.824 82.914c-0.0625-0.55078-0.34766-2.7188-0.34766-3.2734 0-2.0586 0.41016-4.0977 1.2109-6.0039z" fill="url(#j)"/>
   <path d="m10.457 23.281 14.488 66.996c-0.26953-2.4961-0.23828-4.8086 1.1211-8.0195 1.8047-4.25 1.8945-9.0703 0.88672-13.559l-12.191-54.367c-0.35547-1.5938-1.7891-2.7266-3.4258-2.7031z" fill="#003446" fill-opacity=".25"/>
   <path d="m9.1484 10.566 0.17969 3.8711 8.6719 55.578 1.9375 29.871s0.074219 0.84766 0.10156 1.2695c0.62891 9.4336 8.3633 16.844 17.961 16.844h10l9-1v-1l-19 0.015625c-7.418-0.050781-15.742-5.4961-16.004-16.086h0.003906v-29.918c0-4.7852-0.51562-9.5117-1.4023-14.176l-7.7539-40.777c-0.70312-3.5703-1.2461-4.4844-1.6406-4.4922z" fill="url(#i)" stop-color="#000000" stroke-linejoin="round"/>
   <path d="m10.809 15.129 7.8281 41.082c1 4.5352 1.3633 9.1641 1.3633 13.809v29.914l0.20703 2.7578-11.887-78.281c-0.99219-6.5391-0.34766-11.293 0.21875-13.047 0.27344-0.71484 1.0508-2.5156 2.2695 3.7656z" fill="url(#l)"/>
   <path d="m107 102c0 5.5234-4.4766 10-10 10h-49v6h49c5.5234 0 10-4.4766 10-10z" fill="url(#m)"/>
</svg>
